<svg xmlns="http://www.w3.org/2000/svg" width="3000" height="1687" viewBox="0 0 3000 1687" role="img" aria-label="Missing People logo">
  <rect width="3000" height="1687" fill="#000000"/>
  <path fill="#F3FF4E" d="M469.375 171.289 L469.375 624.922 L357.543 624.922 L357.441 326.055 L327.837 624.922 L246.643 624.922 L214.903 332.891 L214.8 624.922 L102.969 624.922 L102.969 171.289 L262.28 171.289 C267.137 200.541 271.906 233.2 276.589 269.265 L287.15 378.008 L309 171.289 Z M641.914 171.289 L641.914 624.922 L515.586 624.922 L515.586 171.289 Z M943.242 316.211 L825.117 316.211 L825.117 277.93 C825.117 263.737 824.162 255.175 822.25 252.246 C820.339 249.316 817.193 247.852 812.813 247.852 C808.076 247.852 804.34 250.028 801.604 254.382 C798.868 258.736 797.5 266.138 797.5 276.588 C797.5 290.548 799.498 301.443 803.494 309.273 C806.457 314.71 816.343 322.398 833.154 332.335 C885.167 363.205 918.04 388.706 931.775 408.838 C945.8 429.397 952.813 461.868 952.813 506.25 C952.813 538.59 948.888 562.705 941.04 578.596 C933.191 594.486 918.195 607.73 896.051 618.325 C873.907 628.921 848.348 634.219 819.375 634.219 C787.545 634.219 760.262 628.13 737.525 615.952 C714.789 603.774 699.869 588.181 692.765 569.173 C685.661 550.165 682.109 523.722 682.109 489.844 L682.109 455.391 L800.234 455.391 L800.234 514.727 C800.234 530.321 801.317 539.825 803.484 543.239 C805.65 546.653 809.489 548.359 815 548.359 C820.62 548.359 824.896 546 827.828 541.28 C830.76 536.56 832.227 528.803 832.227 518.008 C832.227 493.361 830.153 478.14 826.006 472.344 C816.937 463.486 798.298 449.802 770.088 431.294 C741.166 412.136 721.875 398.106 712.215 389.204 C702.555 380.301 694.53 367.934 688.14 352.102 C681.75 336.269 678.555 316.194 678.555 291.875 C678.555 256.98 683.134 231.242 692.293 214.661 C701.452 198.08 716.156 185.156 736.406 175.891 C756.656 166.625 780.849 161.992 808.984 161.992 C839.689 161.992 866.102 167.067 888.224 177.217 C910.345 187.367 925.045 200.254 932.324 215.879 C939.603 231.503 943.242 257.291 943.242 293.242 M1244.023 316.211 L1125.898 316.211 L1125.898 277.93 C1125.898 263.737 1124.943 255.175 1123.032 252.246 C1121.12 249.316 1117.974 247.852 1113.594 247.852 C1108.857 247.852 1105.121 250.028 1102.385 254.382 C1099.649 258.736 1098.281 266.138 1098.281 276.588 C1098.281 290.548 1100.279 301.443 1104.276 309.273 C1107.238 314.71 1117.124 322.398 1133.935 332.335 C1185.948 363.205 1218.822 388.706 1232.556 408.838 C1246.581 429.397 1253.594 461.868 1253.594 506.25 C1253.594 538.59 1249.669 562.705 1241.821 578.596 C1233.972 594.486 1218.976 607.73 1196.832 618.325 C1174.688 628.921 1149.129 634.219 1120.156 634.219 C1088.326 634.219 1061.043 628.13 1038.307 615.952 C1015.57 603.774 1000.65 588.181 993.546 569.173 C986.442 550.165 982.891 523.722 982.891 489.844 L982.891 455.391 L1101.016 455.391 L1101.016 514.727 C1101.016 530.321 1102.099 539.825 1104.265 543.239 C1106.431 546.653 1110.27 548.359 1115.781 548.359 C1121.401 548.359 1125.677 546 1128.609 541.28 C1131.542 536.56 1133.008 528.803 1133.008 518.008 C1133.008 493.361 1130.934 478.14 1126.787 472.344 C1117.718 463.486 1099.079 449.802 1070.869 431.294 C1041.947 412.136 1022.656 398.106 1012.997 389.204 C1003.336 380.301 995.311 367.934 988.921 352.102 C982.531 336.269 979.336 316.194 979.336 291.875 C979.336 256.98 983.915 231.242 993.074 214.661 C1002.233 198.08 1016.937 185.156 1037.187 175.891 C1057.437 166.625 1081.63 161.992 1109.766 161.992 C1140.47 161.992 1166.883 167.067 1189.005 177.217 C1211.126 187.367 1225.826 200.254 1233.105 215.879 C1240.384 231.503 1244.023 257.291 1244.023 293.242 M1416.016 171.289 L1416.016 624.922 L1289.688 624.922 L1289.688 171.289 Z M1730.469 171.289 L1730.469 624.922 L1619.675 624.922 L1569.688 423.672 L1569.688 624.922 L1462.227 624.922 L1462.227 171.289 L1568.085 171.289 L1623.008 370.625 L1623.008 171.289 Z M2052.031 345.195 L1925.703 345.195 L1925.703 299.531 C1925.703 274.891 1924.862 260.117 1923.18 255.211 C1921.498 250.305 1917.873 247.852 1912.305 247.852 C1907.648 247.852 1904.387 249.848 1902.523 253.842 C1900.659 257.835 1899.727 270.786 1899.727 292.695 L1899.727 505.156 C1899.727 524.397 1900.696 536.407 1902.636 541.188 C1904.576 545.969 1908.072 548.359 1913.125 548.359 C1919.112 548.359 1923.298 545.543 1925.682 539.911 C1928.066 534.278 1929.258 521.508 1929.258 501.602 L1929.258 454.57 L1906.016 454.57 L1906.016 376.367 L2052.031 376.367 L2052.031 624.922 L1969.97 624.922 L1962.032 593.203 C1957.859 605.864 1949.356 615.865 1936.523 623.207 C1923.69 630.548 1908.627 634.219 1891.335 634.219 C1870.993 634.219 1851.966 629.292 1834.255 619.438 C1816.545 609.584 1803.097 597.393 1793.913 582.864 C1784.728 568.335 1779.013 553.262 1776.767 537.646 C1774.521 522.03 1773.398 498.713 1773.398 467.695 L1773.398 336.172 C1773.398 293.322 1775.77 261.934 1780.514 242.007 C1785.258 222.08 1798.944 203.763 1821.573 187.054 C1844.201 170.346 1873.26 161.992 1908.75 161.992 C1943.533 161.992 1972.578 169.251 1995.885 183.769 C2019.191 198.287 2034.375 215.519 2041.438 235.466 C2048.5 255.412 2052.031 283.786 2052.031 320.586 M162.969 931.289 L284.375 931.289 C316.159 931.289 340.922 933.878 358.662 939.056 C376.403 944.235 389.841 951.833 398.977 961.852 C408.113 971.871 414.266 983.842 417.434 997.764 C420.603 1011.687 422.188 1032.64 422.188 1060.625 L422.188 1099.18 C422.188 1128.175 419.048 1149.64 412.769 1163.572 C406.49 1177.505 395.036 1188.166 378.408 1195.556 C361.779 1202.946 340.461 1206.641 314.453 1206.641 L289.297 1206.641 L289.297 1384.922 L162.969 1384.922 Z M289.297 1017.969 L289.297 1120.076 C287.876 1119.999 288.787 1119.961 292.031 1119.961 C300.824 1119.961 306.805 1117.954 309.973 1113.939 C313.142 1109.924 314.727 1100.356 314.727 1085.234 L314.727 1048.867 C314.727 1035.375 312.879 1026.852 309.185 1023.299 C305.491 1019.745 298.862 1017.969 289.297 1017.969 M455.273 931.289 L658.438 931.289 L658.438 1030.82 L581.602 1030.82 L581.602 1103.828 L653.516 1103.828 L653.516 1198.984 L581.602 1198.984 L581.602 1285.391 L666.094 1285.391 L666.094 1384.922 L455.273 1384.922 Z M1782.969 931.289 L1904.375 931.289 C1936.159 931.289 1960.922 933.878 1978.662 939.056 C1996.403 944.235 2009.841 951.833 2018.977 961.852 C2028.113 971.871 2034.266 983.842 2037.434 997.764 C2040.603 1011.687 2042.188 1032.64 2042.188 1060.625 L2042.188 1099.18 C2042.188 1128.175 2039.048 1149.64 2032.769 1163.572 C2026.49 1177.505 2015.036 1188.166 1998.408 1195.556 C1981.779 1202.946 1960.461 1206.641 1934.453 1206.641 L1909.297 1206.641 L1909.297 1384.922 L1782.969 1384.922 Z M1909.297 1017.969 L1909.297 1120.076 C1907.875 1119.999 1908.787 1119.961 1912.031 1119.961 C1920.824 1119.961 1926.805 1117.954 1929.973 1113.939 C1933.142 1109.924 1934.727 1100.356 1934.727 1085.234 L1934.727 1048.867 C1934.727 1035.375 1932.879 1026.852 1929.185 1023.299 C1925.491 1019.745 1918.861 1017.969 1909.297 1017.969 M2201.602 931.289 L2201.602 1285.391 L2271.602 1285.391 L2271.602 1384.922 L2075.273 1384.922 L2075.273 931.289 Z M2299.492 931.289 L2502.656 931.289 L2502.656 1030.82 L2425.82 1030.82 L2425.82 1103.828 L2497.734 1103.828 L2497.734 1198.984 L2425.82 1198.984 L2425.82 1285.391 L2510.312 1285.391 L2510.312 1384.922 L2299.492 1384.922 Z"/>
  <path fill="#F3FF4E" d="M1500 860
C1392 860 1305 947 1305 1055
C1305 1198 1447 1340 1500 1420
C1553 1340 1695 1198 1695 1055
C1695 947 1608 860 1500 860 Z
M1500 970
A110 110 0 1 1 1499.9 970 Z"/>
</svg>